<?xml version="1.0" standalone="no"?><!DOCTYPE svg PUBLIC "-//W3C//DTD SVG 1.1//EN" "http://www.w3.org/Graphics/SVG/1.1/DTD/svg11.dtd"><svg t="1599623167068" class="icon" viewBox="0 0 1024 1024" version="1.1" xmlns="http://www.w3.org/2000/svg" p-id="3746" xmlns:xlink="http://www.w3.org/1999/xlink" width="48" height="48"><defs><style type="text/css"></style></defs><path d="M896 307.2l-768 0c-14.1312 0-25.6-11.4688-25.6-25.6s11.4688-25.6 25.6-25.6l768 0c14.1312 0 25.6 11.4688 25.6 25.6s-11.4688 25.6-25.6 25.6z" p-id="3747" fill="#2c2c2c"></path><path d="M896 563.2l-768 0c-14.1312 0-25.6-11.4688-25.6-25.6s11.4688-25.6 25.6-25.6l768 0c14.1312 0 25.6 11.4688 25.6 25.6s-11.4688 25.6-25.6 25.6z" p-id="3748" fill="#2c2c2c"></path><path d="M896 819.2l-768 0c-14.1312 0-25.6-11.4688-25.6-25.6s11.4688-25.6 25.6-25.6l768 0c14.1312 0 25.6 11.4688 25.6 25.6s-11.4688 25.6-25.6 25.6z" p-id="3749" fill="#2c2c2c"></path></svg>